{"title":"Beroe - Chernomoretz Balchik","uid":6173578,"size":1288504132,"categoryP":"other","categoryS":"other","magnet":"?xt=urn:btih:a1445ebf32cd0ae488102d1a2e367a8898a22b85&amp;dn=Beroe+-+Chernomoretz+Balchik&amp;tr=udp%3A%2F%2Ftracker.openbittorrent.com%3A80&amp;tr=udp%3A%2F%2Fopen.demonii.com%3A1337&amp;tr=udp%3A%2F%2Ftracker.coppersurfer.tk%3A6969&amp;tr=udp%3A%2F%2Fexodus.desync.com%3A6969","seeders":0,"leechers":1,"uploader":"spiralkinda","files":1,"time":1297681256,"description":"General\nComplete name                    : J:\\\\Beroe - Chernomoretz Balchik\\\\Balchik - Beroe.avi\nFormat                           : AVI\nFormat/Info                      : Audio Video Interleave\nFile size                        : 1.20 GiB\nDuration                         : 1h 36mn\nOverall bit rate                 : 1 788 Kbps\nWriting library                  : VirtualDub build 32706/release\n\nVideo\nID                               : 0\nFormat                           : MPEG-4 Visual\nFormat settings, BVOP            : Yes\nFormat settings, QPel            : No\nFormat settings, GMC             : No warppoints\nFormat settings, Matrix          : Default (H.263)\nMuxing mode                      : Packed bitstream\nCodec ID                         : DX50\nCodec ID/Hint                    : DivX 5\nDuration                         : 1h 36mn\nBit rate                         : 1 650 Kbps\nWidth                            : 720 pixels\nHeight                           : 400 pixels\nDisplay aspect ratio             : 16:9\nFrame rate                       : 25.000 fps\nResolution                       : 24 bits\nColorimetry                      : 4:2:0\nScan type                        : Progressive\nBits/(Pixel*Frame)               : 0.229\nStream size                      : 1.11 GiB (92%)\nWriting library                  : DivX 6.8.5 (UTC 2009-08-20)\n\nAudio\nID                               : 1\nFormat                           : AC-3\nFormat/Info                      : Audio Coding 3\nCodec ID                         : 2000\nDuration                         : 1h 36mn\nBit rate mode                    : Constant\nBit rate                         : 128 Kbps\nChannel(s)                       : 2 channels\nChannel positions                : L R\nSampling rate                    : 44.1 KHz\nStream size                      : 87.8 MiB (7%)\nAlignment                        : Aligned on interleaves\nInterleave, duration             : 40 ms (1.00 video frame)\nInterleave, preload duration     : 522 ms\n\n","torrent":{"xt":"urn:btih:a1445ebf32cd0ae488102d1a2e367a8898a22b85","amp;dn":"Beroe+-+Chernomoretz+Balchik","amp;tr":["udp%3A%2F%2Ftracker.openbittorrent.com%3A80","udp%3A%2F%2Fopen.demonii.com%3A1337","udp%3A%2F%2Ftracker.coppersurfer.tk%3A6969","udp%3A%2F%2Fexodus.desync.com%3A6969"],"infoHash":"a1445ebf32cd0ae488102d1a2e367a8898a22b85","infoHashBuffer":{"type":"Buffer","data":[161,68,94,191,50,205,10,228,136,16,45,26,46,54,122,136,152,162,43,133]},"announce":[],"urlList":[]}}